{"glyphs":{"0":{"ha":568,"x_min":0,"x_max":0,"o":"m 236 80 b 99 216 160 80 99 141 l 99 588 b 236 724 99 663 160 724 b 372 588 311 724 372 663 l 372 216 b 236 80 372 141 311 80 z m 374 778 b 236 823 335 806 287 823 b 97 778 184 823 136 806 b 0 588 38 735 0 666 l 0 216 b 99 24 0 137 39 67 b 236 -19 137 -3 185 -19 b 372 24 286 -19 334 -3 b 471 216 432 67 471 137 l 471 588 b 374 778 471 666 433 735 z "},"1":{"ha":314,"x_min":0,"x_max":0,"o":"m 216 786 b 216 788 216 786 216 787 b 215 791 216 789 216 790 b 215 793 215 791 215 792 b 214 795 215 794 215 794 b 213 798 214 796 214 797 b 213 800 213 798 213 799 b 212 802 212 801 212 801 b 211 804 211 803 211 803 b 209 806 210 805 210 806 b 208 808 209 807 209 808 b 207 811 208 809 207 810 b 205 812 206 811 206 812 b 198 819 203 815 201 817 b 197 821 198 820 197 820 b 194 822 196 821 195 822 b 192 823 194 823 193 823 b 190 825 192 824 191 824 b 188 826 189 825 189 825 b 186 827 187 826 187 826 b 184 828 185 827 184 827 b 181 828 183 828 182 828 b 179 829 180 829 180 829 b 177 830 178 829 177 829 b 174 830 176 830 175 830 b 172 830 173 830 172 830 b 162 830 168 831 165 831 b 160 830 161 830 160 830 b 157 830 159 830 158 830 b 155 829 156 829 155 829 b 152 828 154 829 153 829 b 150 828 152 828 151 828 b 148 827 149 827 149 827 b 146 826 147 826 146 826 b 143 825 145 825 144 825 b 141 823 143 824 142 824 b 139 822 141 823 140 823 b 137 821 138 822 138 821 b 135 819 136 820 136 820 b 132 816 134 818 133 817 l 19 704 b 19 633 0 684 0 653 b 90 633 39 614 70 614 l 117 661 l 117 48 b 167 -1 117 21 139 -1 b 216 48 194 -1 216 21 l 216 781 b 216 786 216 782 216 784 z "},"2":{"ha":581,"x_min":0,"x_max":0,"o":"m 484 50 b 434 100 484 78 461 100 l 152 100 l 432 459 b 436 464 433 461 434 462 b 482 604 465 503 482 551 b 475 660 482 623 480 642 b 248 838 450 762 358 838 b 15 627 127 838 27 745 b 15 627 15 627 15 627 b 15 621 15 625 15 623 b 15 621 15 621 15 621 l 15 620 b 64 570 15 592 37 570 b 114 614 90 570 111 589 l 114 614 b 114 618 114 616 114 617 l 114 618 b 248 739 121 686 179 739 b 383 604 322 739 383 678 b 357 524 383 574 373 547 b 352 518 355 522 354 520 b 352 518 352 518 352 518 l 237 370 l 13 84 l 13 84 l 10 80 b 1 62 6 75 3 68 b 1 58 1 61 1 59 b 0 56 1 57 0 57 b 0 54 0 55 0 54 b 0 52 0 53 0 53 l 0 52 b 0 51 0 52 0 51 l 0 50 b 0 48 0 49 0 48 b 15 15 1 35 6 24 b 50 0 24 6 36 0 l 434 0 b 484 50 461 0 484 23 z "},"3":{"ha":558,"x_min":0,"x_max":0,"o":"m 462 610 b 228 843 462 739 357 843 b 3 671 120 843 30 770 b 1 664 2 669 1 666 b 0 655 0 661 0 658 b 50 605 0 628 22 605 b 97 640 72 605 91 620 b 99 646 98 642 98 644 b 228 744 114 702 166 744 b 362 610 302 744 362 684 b 231 476 362 537 304 477 b 231 476 231 476 231 476 b 228 476 230 476 229 476 b 225 476 227 476 226 476 b 225 476 225 476 225 476 b 224 476 225 476 224 476 b 178 426 198 473 178 452 b 224 376 178 400 198 378 b 225 376 224 376 225 376 b 225 376 225 376 225 376 b 228 376 226 376 227 376 b 231 376 229 376 230 376 b 231 376 231 376 231 376 b 362 242 304 375 362 315 b 228 108 362 168 302 108 b 100 201 168 108 118 147 b 98 207 100 203 99 205 b 98 207 98 207 98 207 b 52 240 91 226 73 240 b 2 190 24 240 2 218 b 3 180 2 187 2 183 b 3 180 3 180 3 180 b 5 173 3 178 4 175 b 5 173 5 173 5 173 b 228 8 34 78 123 8 b 462 242 357 8 462 113 b 372 426 462 317 426 383 b 462 610 426 469 462 535 z "},"4":{"ha":685,"x_min":0,"x_max":0,"o":"m 148 341 l 363 631 l 363 341 l 148 341 z m 538 341 l 462 341 l 462 781 b 462 782 462 782 462 782 b 462 785 462 783 462 784 b 462 788 462 786 462 787 b 461 790 461 788 461 789 b 461 792 461 791 461 792 b 460 794 461 793 460 794 b 459 797 460 795 460 796 b 459 799 459 798 459 798 b 458 801 458 800 458 801 b 457 803 457 802 457 803 b 456 806 456 804 456 805 b 454 808 455 806 455 807 b 453 810 454 808 453 809 b 451 812 452 810 452 811 b 450 814 451 812 450 813 b 448 815 449 814 449 815 b 447 817 448 816 447 817 b 445 819 446 818 445 818 b 443 820 444 819 443 820 b 442 821 442 821 442 821 b 441 822 442 821 441 821 b 439 823 440 822 439 823 b 437 824 438 824 437 824 b 434 826 436 825 435 825 b 433 827 434 826 433 826 b 430 828 432 827 431 827 b 428 828 429 828 429 828 b 425 829 427 829 426 829 b 423 830 425 829 424 829 b 421 830 422 830 422 830 b 418 830 420 830 419 830 b 416 831 418 831 417 831 b 413 831 415 831 414 831 b 412 831 413 831 413 831 b 411 831 412 831 411 831 b 408 831 410 831 409 831 b 406 830 408 831 407 831 b 404 830 405 830 405 830 b 401 830 403 830 402 830 b 399 829 400 829 400 829 b 396 828 398 829 397 829 b 395 828 396 828 395 828 b 392 827 394 827 393 827 b 390 826 391 826 391 826 b 388 824 389 825 389 825 b 386 823 387 824 386 824 b 384 822 385 823 384 822 b 382 820 383 821 382 821 b 380 819 381 820 381 819 b 378 817 379 818 379 818 b 376 816 378 817 377 816 b 375 814 376 815 375 814 b 373 812 374 813 374 812 b 372 811 373 811 373 811 l 10 320 b 9 319 9 320 9 319 b 8 318 9 319 8 318 b 6 315 7 317 7 316 b 6 314 6 315 6 314 b 4 311 5 313 5 312 b 4 309 4 310 4 310 b 2 306 3 308 3 307 b 2 305 2 306 2 305 b 1 302 2 304 1 303 b 1 300 1 301 1 300 b 0 297 1 299 1 298 b 0 295 0 296 0 295 b 0 292 0 294 0 293 b 0 291 0 292 0 291 l 0 291 b 0 289 0 290 0 290 b 0 287 0 289 0 288 b 0 284 0 286 0 285 b 1 283 1 284 1 283 b 1 279 1 282 1 280 b 2 279 1 279 2 279 b 3 274 2 277 2 276 b 3 274 3 274 3 274 b 5 270 3 273 4 271 b 5 270 5 270 5 270 b 7 266 5 268 6 267 b 7 266 7 266 7 266 b 50 241 16 251 31 241 l 363 241 l 363 49 b 412 -1 363 21 385 -1 b 462 49 440 -1 462 21 l 462 241 l 538 241 b 588 291 566 241 588 263 l 588 291 b 538 341 588 318 566 341 z "},"5":{"ha":601,"x_min":0,"x_max":0,"o":"m 226 561 b 107 533 184 561 143 551 l 107 732 l 435 732 b 485 781 462 732 485 754 b 470 816 485 795 479 807 b 435 831 461 825 449 831 l 57 831 b 7 783 30 831 8 810 b 7 780 7 782 7 781 l 7 435 b 57 386 7 408 30 386 b 92 400 71 386 83 391 b 92 400 92 400 92 400 b 96 404 93 402 94 403 b 226 461 128 439 175 461 b 405 283 325 461 405 381 b 226 104 405 185 325 104 b 91 167 172 104 123 129 b 86 173 89 169 87 171 b 50 188 77 183 64 188 b 0 139 22 188 0 166 b 8 111 0 128 3 119 b 8 111 8 111 8 111 b 15 103 10 108 12 106 b 226 5 66 43 142 5 b 504 283 380 5 504 130 b 226 561 504 436 380 561 z "},"6":{"ha":601,"x_min":0,"x_max":0,"o":"m 252 100 b 99 253 168 100 99 168 b 125 337 99 284 109 313 l 128 341 b 252 406 155 380 201 406 b 405 253 336 406 405 337 b 252 100 405 168 336 100 z m 252 505 b 240 505 248 505 244 505 l 411 753 b 399 822 427 775 421 806 b 371 830 390 828 380 830 b 330 809 355 830 339 823 l 47 399 l 43 393 b 0 253 16 353 0 305 b 0 239 0 248 0 243 b 252 0 8 106 118 0 b 504 253 391 0 504 114 b 252 505 504 392 391 505 z "},"7":{"ha":715,"x_min":0,"x_max":0,"o":"m 582 826 b 576 828 580 827 578 828 b 576 828 576 828 576 828 b 571 829 574 829 573 829 b 570 830 571 830 571 830 b 567 830 569 830 568 830 b 565 830 566 830 566 830 b 562 830 564 830 563 830 b 561 830 562 830 561 830 l 49 830 b 0 782 22 830 0 809 l 0 780 b 49 731 0 753 22 731 l 484 731 l 183 71 b 208 5 172 46 183 16 b 274 29 233 -7 262 5 l 607 760 b 582 826 618 785 607 815 z "},"8":{"ha":568,"x_min":0,"x_max":0,"o":"m 236 471 b 99 608 160 471 99 533 b 236 744 99 683 160 744 b 372 608 311 744 372 683 b 236 471 372 533 311 471 z m 236 100 b 99 236 160 100 99 161 b 236 372 99 311 160 372 b 372 236 311 372 372 311 b 236 100 372 161 311 100 z m 471 608 b 236 843 471 737 365 843 b 0 608 106 843 0 737 b 91 422 0 532 36 465 b 0 236 36 379 0 311 b 236 0 0 106 106 0 b 471 236 365 0 471 106 b 380 422 471 311 435 379 b 471 608 435 465 471 532 z "},"9":{"ha":601,"x_min":0,"x_max":0,"o":"m 380 493 l 377 489 b 252 424 349 450 304 424 b 99 577 168 424 99 493 b 252 730 99 662 168 730 b 405 577 336 730 405 662 b 380 493 405 546 396 517 z m 504 591 b 252 830 497 724 386 830 b 0 577 113 830 0 716 b 252 325 0 438 113 325 b 264 325 256 325 260 325 l 93 77 b 106 8 77 55 83 24 b 134 0 114 2 124 0 b 175 21 150 0 165 7 l 458 431 l 462 437 b 504 577 489 477 504 525 b 504 591 504 582 504 587 z "},"\u0000":{"ha":903,"x_min":0,"x_max":0,"o":""},"\r":{"ha":365,"x_min":0,"x_max":0,"o":""}," ":{"ha":285,"x_min":0,"x_max":0,"o":""},"\"":{"ha":476,"x_min":0,"x_max":0,"o":"m 36 578 b 54 575 42 576 48 575 b 100 607 74 575 93 587 l 172 869 b 173 874 172 871 173 872 b 152 901 175 887 165 899 b 130 892 143 902 135 898 l 130 892 l 126 884 l 5 635 b 36 578 0 612 13 587 z m 210 635 l 331 884 l 335 892 l 335 892 b 357 901 340 898 348 902 b 377 874 370 899 379 887 b 376 869 377 872 377 871 l 305 607 b 258 575 297 587 278 575 b 241 578 253 575 247 576 b 210 635 217 587 205 612 z "},"#":{"ha":881,"x_min":0,"x_max":0,"o":"m 451 348 l 316 348 l 368 500 l 503 500 l 451 348 z m 734 599 l 642 599 l 701 773 b 670 836 710 799 696 827 b 607 805 644 845 616 831 l 537 599 l 402 599 l 461 773 b 430 836 470 799 456 827 b 367 805 404 845 376 831 l 297 599 l 137 599 b 88 550 110 599 88 577 l 88 549 b 137 500 88 522 110 500 l 263 500 l 211 348 l 49 348 b 0 298 22 348 0 325 l 0 297 b 49 248 0 270 22 248 l 177 248 l 117 72 b 148 9 108 46 122 18 b 211 40 174 0 202 14 l 282 248 l 417 248 l 357 72 b 388 9 348 46 362 18 b 451 40 414 0 442 14 l 522 248 l 647 248 b 696 297 674 248 696 270 l 696 298 b 647 348 696 325 674 348 l 556 348 l 608 500 l 734 500 b 783 549 761 500 783 522 l 783 550 b 734 599 783 577 761 599 z "},"'":{"ha":272,"x_min":0,"x_max":0,"o":"m 169 841 b 138 898 175 865 162 889 b 121 901 133 900 127 901 b 74 869 101 901 82 889 l 3 607 b 2 602 2 605 2 604 b 22 575 0 589 9 577 b 45 584 31 574 40 578 l 45 585 l 48 592 l 169 841 z "},"+":{"ha":765,"x_min":0,"x_max":0,"o":"m 560 375 l 364 375 l 364 571 b 315 620 364 598 342 620 l 315 620 b 265 571 287 620 265 598 l 265 375 l 70 375 b 20 325 42 375 20 353 b 70 276 20 298 42 276 l 265 276 l 265 80 b 315 31 265 53 287 31 l 315 31 b 364 80 342 31 364 53 l 364 276 l 560 276 b 609 325 587 276 609 298 b 560 375 609 353 587 375 z "},",":{"ha":272,"x_min":0,"x_max":0,"o":"m 169 59 b 138 116 175 83 162 107 b 121 119 133 118 127 119 b 74 87 101 119 82 107 l 3 -175 b 2 -180 2 -176 2 -178 b 22 -207 0 -193 9 -205 b 45 -197 31 -208 40 -204 l 45 -197 l 48 -189 l 169 59 z "},"-":{"ha":506,"x_min":0,"x_max":0,"o":"m 20 309 l 20 309 b 70 260 20 282 42 260 l 320 260 b 369 309 347 260 369 282 l 369 309 b 320 359 369 337 347 359 l 70 359 b 20 309 42 359 20 337 z "},".":{"ha":229,"x_min":0,"x_max":0,"o":"m 92 56 b 36 112 92 87 67 112 b -20 56 5 112 -20 87 b 36 0 -20 25 5 0 b 92 56 67 0 92 25 z "},"/":{"ha":567,"x_min":0,"x_max":0,"o":"m 432 790 l 432 790 b 367 764 407 801 378 789 l 11 -74 b 37 -139 0 -99 12 -128 l 37 -139 b 102 -113 62 -150 91 -138 l 459 725 b 432 790 469 750 458 779 z "},":":{"ha":197,"x_min":0,"x_max":0,"o":"m 50 207 b 100 158 77 207 100 185 b 50 108 100 130 77 108 b 0 158 22 108 0 130 b 50 207 0 185 22 207 z m 100 382 b 50 432 100 410 77 432 b 0 382 22 432 0 410 b 50 332 0 355 22 332 b 100 382 77 332 100 355 z "},";":{"ha":275,"x_min":0,"x_max":0,"o":"m 128 478 b 178 428 156 478 178 455 b 128 378 178 400 156 378 b 79 428 101 378 79 400 b 128 478 79 455 101 478 z m 169 267 b 138 324 175 291 162 315 b 121 327 133 326 127 327 b 74 295 101 327 82 315 l 3 33 b 2 28 2 31 2 30 b 22 1 0 15 9 3 b 45 11 31 0 40 4 l 45 11 l 48 19 l 169 267 z "},"=":{"ha":826,"x_min":0,"x_max":0,"o":"m 79 201 l 79 201 b 129 151 79 174 102 151 l 581 151 b 631 201 608 151 631 174 l 631 201 b 581 251 631 228 608 251 l 129 251 b 79 201 102 251 79 228 z m 129 499 l 581 499 b 631 450 608 499 631 477 l 631 450 b 581 400 631 422 608 400 l 129 400 b 79 450 102 400 79 422 l 79 450 b 129 499 79 477 102 499 z "},"?":{"ha":632,"x_min":0,"x_max":0,"o":"m 284 100 b 234 50 256 100 234 77 b 284 0 234 22 256 0 b 333 50 311 0 333 22 b 284 100 333 77 311 100 z m 284 842 b 43 666 171 842 76 768 b 41 659 42 664 42 661 b 41 658 41 658 41 658 b 40 648 40 654 40 651 b 90 598 40 620 62 598 b 136 629 110 598 128 611 b 139 638 137 632 138 635 b 284 743 159 699 216 743 b 437 590 368 743 437 674 b 287 437 437 506 370 438 b 284 437 286 437 285 437 b 281 437 283 437 282 437 b 249 422 268 436 257 431 b 234 387 240 413 234 401 l 234 196 b 284 146 234 168 256 146 b 333 196 311 146 333 168 l 333 342 b 536 590 449 365 536 468 b 284 842 536 729 423 842 z m 287 437 b 284 437 286 437 285 437 b 281 437 283 437 282 437 b 284 437 282 437 283 437 b 287 437 285 437 286 437 z "},"@":{"ha":1233,"x_min":0,"x_max":0,"o":"m 504 190 b 394 368 425 209 376 288 b 571 478 413 447 492 497 b 682 301 651 460 700 380 b 504 190 663 221 584 172 z m 824 473 b 786 533 830 500 813 527 b 727 494 759 539 733 521 l 727 494 b 582 577 691 536 641 567 b 298 391 454 601 328 518 b 482 94 266 258 349 125 b 637 108 536 81 590 87 l 649 114 l 649 114 b 696 9 649 72 660 31 b 843 16 731 -14 782 -12 b 1110 350 953 65 1084 191 b 941 749 1136 514 1044 669 b 507 839 830 835 668 869 b 132 589 347 810 210 718 b 233 -99 0 370 43 74 b 603 -239 333 -189 464 -239 b 617 -239 607 -239 612 -239 b 1006 -76 762 -235 900 -177 b 1007 -6 1026 -57 1026 -26 b 937 -5 988 14 957 14 b 300 -25 757 -177 477 -186 b 217 538 145 116 109 358 b 526 742 281 644 391 717 b 880 670 657 766 792 739 b 1012 366 960 608 1032 490 b 839 126 994 257 911 171 b 780 98 816 112 796 103 b 748 122 764 93 748 105 b 752 165 748 133 749 147 l 824 473 z "},"A":{"ha":781,"x_min":0,"x_max":0,"o":"m 216 342 l 329 626 l 442 342 l 216 342 z m 486 231 l 564 36 b 635 5 575 8 607 -6 l 635 5 b 666 77 664 16 678 48 l 383 789 b 350 828 379 806 367 821 b 331 832 343 831 337 832 b 329 832 330 832 329 832 b 327 832 328 832 328 832 b 308 828 321 832 314 831 l 308 828 b 274 789 290 821 278 806 l -9 77 b 22 5 -20 48 -6 16 b 94 36 51 -6 83 8 l 172 231 l 486 231 z "},"B":{"ha":563,"x_min":0,"x_max":0,"o":"m 104 158 l 104 375 l 229 375 b 331 332 269 375 305 358 b 374 230 358 306 374 270 b 331 128 374 190 358 154 b 229 85 305 101 269 85 b 104 158 175 85 129 114 z m 104 677 b 126 706 110 688 118 697 b 228 748 152 732 188 748 b 330 706 268 748 304 732 b 372 604 356 680 372 644 b 330 502 372 564 356 528 b 237 460 306 478 273 463 l 219 460 l 104 460 l 104 677 z m 391 68 b 458 230 433 109 458 167 b 391 392 458 293 433 350 b 360 418 381 402 371 410 b 389 443 370 426 380 434 b 456 604 430 484 456 541 b 389 765 456 667 430 724 b 228 832 348 807 291 832 b 99 792 180 832 136 818 b 88 808 97 798 93 804 b 52 823 79 817 66 823 b 0 771 23 823 0 800 l 0 44 b 52 -8 0 16 23 -8 b 103 38 79 -8 101 12 b 229 1 139 15 183 1 b 391 68 292 1 350 27 z "},"C":{"ha":785,"x_min":0,"x_max":0,"o":"m 427 -10 b 653 55 510 -10 587 14 b 653 55 653 55 653 55 b 659 59 655 56 657 57 b 659 59 659 59 659 59 b 680 101 672 68 680 84 b 628 153 680 130 657 153 b 604 148 619 153 611 151 b 595 142 601 146 598 144 b 427 94 546 112 488 94 b 104 417 249 94 104 239 b 427 739 104 595 249 739 b 599 689 490 739 549 721 b 626 682 607 685 616 682 b 678 734 655 682 678 705 b 656 777 678 752 669 767 b 655 777 655 777 655 777 b 651 780 654 778 653 779 b 651 780 651 780 651 780 b 427 844 586 820 509 844 b 0 417 191 844 0 652 b 427 -10 0 181 191 -10 z "},"D":{"ha":713,"x_min":0,"x_max":0,"o":"m 105 717 b 194 730 133 725 163 730 b 507 417 366 730 507 589 b 194 104 507 244 366 104 b 105 117 163 104 133 108 l 105 717 z m 52 -4 b 93 15 69 -4 83 3 b 194 2 125 7 159 2 b 608 417 422 2 608 188 b 194 831 608 645 422 831 b 93 819 159 831 125 827 b 90 822 92 820 91 821 b 52 837 80 832 67 837 b 0 785 23 837 0 814 l 0 49 b 52 -4 0 20 23 -4 z "},"E":{"ha":561,"x_min":0,"x_max":0,"o":"m 52 1 l 405 1 b 457 53 434 1 457 24 b 405 105 457 81 434 105 l 103 105 l 103 385 l 405 385 b 457 437 434 385 457 408 b 405 488 457 465 434 488 l 103 488 l 103 728 l 405 728 b 457 779 434 728 457 751 b 405 831 457 808 434 831 l 52 831 b 0 779 23 831 0 808 b 0 779 0 779 0 779 b 0 779 0 779 0 779 l 0 54 b 0 53 0 53 0 53 b 0 53 0 53 0 53 b 52 1 0 24 23 1 z "},"F":{"ha":563,"x_min":0,"x_max":0,"o":"m 52 1 b 104 53 80 1 104 24 l 104 384 l 406 384 b 458 436 435 384 458 407 l 458 436 b 406 488 458 465 435 488 l 104 488 l 104 728 l 406 728 b 458 779 435 728 458 751 l 458 779 b 406 831 458 808 435 831 l 52 831 b 0 779 23 831 0 808 l 0 779 b 0 774 0 778 0 776 b 0 769 0 772 0 771 l 0 436 l 0 436 l 0 53 b 52 1 0 24 23 1 z "},"G":{"ha":958,"x_min":0,"x_max":0,"o":"m 854 414 b 801 465 853 442 829 465 l 434 465 b 381 411 405 465 381 441 b 434 358 381 382 405 358 l 745 358 b 427 93 718 207 585 93 b 103 417 249 93 103 238 b 427 740 103 595 249 740 b 638 662 508 740 582 711 b 645 656 641 660 643 658 l 645 656 b 676 646 654 650 664 646 b 728 698 704 646 728 669 b 713 734 728 712 722 724 b 707 739 711 735 709 737 b 427 844 632 804 534 844 b 0 417 192 844 0 652 b 427 -10 0 181 192 -10 b 854 408 660 -10 849 176 b 854 411 854 409 854 410 b 854 414 854 412 854 413 b 854 414 854 414 854 414 z "},"H":{"ha":610,"x_min":0,"x_max":0,"o":"m 506 780 b 454 832 506 809 483 832 l 454 832 b 402 780 425 832 402 809 l 402 469 l 104 469 l 104 780 b 52 832 104 809 80 832 b 0 780 23 832 0 809 l 0 53 b 52 1 0 24 23 1 b 104 53 80 1 104 24 l 104 365 l 402 365 l 402 53 b 454 1 402 24 425 1 l 454 1 b 506 53 483 1 506 24 l 506 780 z "},"I":{"ha":208,"x_min":0,"x_max":0,"o":"m 52 1 b 104 54 80 1 104 25 l 104 780 b 52 832 104 809 80 832 b 0 780 23 832 0 809 l 0 54 b 52 1 0 25 23 1 z "},"J":{"ha":438,"x_min":0,"x_max":0,"o":"m 334 781 b 319 817 334 795 328 808 b 282 832 309 826 297 832 b 231 781 254 832 231 809 l 231 176 b 159 104 231 136 199 104 b 98 138 133 104 111 117 b 98 138 98 138 98 138 b 94 145 97 141 96 143 b 51 168 85 159 69 168 b 0 117 23 168 0 145 b 4 96 0 109 1 103 b 4 96 4 96 4 96 b 9 87 6 93 7 90 b 159 1 40 36 96 1 b 323 115 234 1 298 49 b 334 169 329 132 333 150 b 334 176 334 171 334 173 b 334 182 334 178 334 180 l 334 781 z "},"K":{"ha":556,"x_min":0,"x_max":0,"o":"m 169 430 l 419 748 b 430 780 427 758 430 769 b 410 821 430 796 423 811 b 338 812 388 839 355 835 l 104 515 l 104 780 b 88 816 104 794 98 807 b 52 831 79 826 66 831 b 0 780 23 831 0 808 l 0 53 b 52 1 0 24 23 1 b 104 53 80 1 104 24 l 104 346 l 358 22 b 431 13 376 -1 409 -5 b 451 54 444 23 451 38 b 440 86 451 65 447 76 l 169 430 z "},"L":{"ha":578,"x_min":0,"x_max":0,"o":"m 51 1 l 422 1 b 458 16 436 1 449 7 b 473 53 467 26 473 39 b 422 105 473 82 450 105 l 103 105 l 103 780 b 88 817 103 795 97 808 b 51 832 79 826 66 832 b 0 780 23 832 0 809 l 0 53 b 51 1 0 24 23 1 z "},"M":{"ha":710,"x_min":0,"x_max":0,"o":"m 588 816 l 588 816 b 551 831 578 826 564 831 b 551 831 551 831 551 831 b 509 809 533 831 518 822 l 302 601 l 88 816 b 81 822 86 818 83 820 b 80 822 81 822 80 822 b 77 824 79 823 78 824 b 76 825 76 825 76 825 b 72 827 75 826 74 826 b 71 827 72 827 72 827 b 68 828 70 828 69 828 b 67 829 67 829 67 829 b 63 830 65 829 64 830 b 62 830 62 830 62 830 b 41 830 55 831 48 831 b 40 830 41 830 41 830 b 36 829 39 830 38 829 b 35 828 36 829 36 829 b 32 827 34 828 33 828 b 31 827 31 827 31 827 b 27 825 29 826 28 826 b 26 824 27 825 26 825 b 23 822 25 824 24 823 b 22 822 23 822 22 822 b 15 816 20 820 17 818 l 15 816 b 12 813 14 815 13 814 b 12 812 12 813 12 812 b 9 809 11 811 10 810 b 9 808 9 809 9 809 b 7 805 8 807 7 806 b 6 804 7 805 6 804 b 5 801 6 803 5 802 b 4 799 4 800 4 800 b 3 796 4 798 3 797 b 2 794 3 796 2 795 b 2 792 2 794 2 793 b 1 790 1 791 1 790 b 1 786 1 788 1 787 b 0 784 0 786 0 785 b 0 779 0 783 0 781 b 0 779 0 779 0 779 l 0 53 b 51 1 0 24 23 1 l 51 1 b 103 53 80 1 103 24 l 103 654 l 264 492 b 302 477 274 482 288 477 b 339 492 315 477 329 482 l 499 653 l 499 53 b 551 1 499 24 522 1 b 602 53 579 1 602 24 l 602 769 b 588 816 606 785 601 803 z "},"N":{"ha":747,"x_min":0,"x_max":0,"o":"m 552 831 b 501 779 524 831 501 808 l 501 213 l 75 808 l 73 810 b 71 812 73 810 72 811 b 71 813 71 812 71 813 b 68 816 70 814 69 815 b 66 818 67 817 67 817 b 62 821 65 819 64 820 l 62 821 b 60 822 62 821 61 822 b 58 824 60 823 59 823 b 56 825 58 824 57 824 b 54 826 55 825 55 826 b 48 828 52 827 50 828 b 46 829 47 829 46 829 b 43 830 45 829 44 830 l 43 830 b 41 830 42 830 41 830 b 40 830 41 830 40 830 b 38 831 39 831 38 831 b 35 831 37 831 36 831 b 32 831 34 831 33 831 b 31 831 32 831 32 831 b 31 831 31 831 31 831 b 28 831 30 831 29 831 b 25 831 27 831 26 831 b 24 831 25 831 24 831 b 21 830 23 830 22 830 b 19 830 20 830 20 830 b 16 829 18 829 17 829 b 13 828 15 828 14 828 b 13 827 13 828 13 827 b 12 827 12 827 12 827 b 9 826 11 827 10 826 b 7 825 9 826 8 825 b 5 824 6 824 6 824 b 3 822 4 823 3 823 b 2 821 2 822 2 822 b 1 821 1 821 1 821 b -3 818 0 820 -2 819 b -5 816 -4 817 -4 817 b -6 814 -5 815 -6 815 l -7 814 b -8 812 -7 813 -8 813 b -11 808 -9 811 -10 810 b -15 802 -12 806 -14 804 b -16 799 -15 801 -16 800 b -17 797 -16 799 -17 798 b -18 794 -17 796 -17 795 b -18 793 -18 794 -18 793 b -18 791 -18 792 -18 792 b -19 789 -19 790 -19 789 b -19 788 -19 788 -19 788 b -19 785 -19 787 -19 786 b -20 782 -20 784 -20 783 b -20 779 -20 781 -20 780 l -20 53 b 32 1 -20 24 3 1 b 83 53 60 1 83 24 l 83 619 l 511 22 b 552 1 520 9 535 1 b 604 53 581 1 604 24 l 604 779 b 588 816 604 794 598 807 b 552 831 579 825 566 831 z "},"O":{"ha":950,"x_min":0,"x_max":0,"o":"m 423 92 b 102 416 246 92 102 237 b 423 740 102 595 246 740 b 743 416 600 740 743 595 b 423 92 743 237 600 92 z m 423 844 b 0 416 190 844 0 652 b 423 -12 0 180 190 -12 b 846 416 656 -12 846 180 b 423 844 846 652 656 844 z "},"P":{"ha":581,"x_min":0,"x_max":0,"o":"m 225 425 b 103 487 175 425 131 449 l 103 671 b 225 732 131 708 175 732 b 377 579 309 732 377 663 b 225 425 377 494 309 425 z m 225 832 b 100 799 179 832 136 820 b 88 817 97 805 93 812 b 51 832 79 826 66 832 b 0 780 23 832 0 809 l 0 53 b 51 1 0 24 23 1 b 103 53 80 1 103 24 l 103 357 b 225 325 139 337 181 325 b 477 579 364 325 477 439 b 225 832 477 718 364 832 z "},"Q":{"ha":947,"x_min":0,"x_max":0,"o":"m 408 184 l 488 102 b 422 95 467 98 445 95 b 102 418 245 95 102 240 b 422 741 102 596 245 741 b 741 418 598 741 741 596 b 594 146 741 304 683 204 l 483 259 b 408 259 462 280 428 280 b 408 184 387 238 387 205 z m 844 418 b 422 844 844 653 654 844 b 0 418 189 844 0 653 b 422 -8 0 183 189 -8 b 571 19 474 -8 524 2 l 664 -75 b 738 -75 684 -96 718 -96 b 738 1 759 -54 759 -20 l 668 72 b 844 418 774 150 844 276 z "},"R":{"ha":596,"x_min":0,"x_max":0,"o":"m 103 538 l 103 649 b 229 732 124 698 173 732 b 366 594 305 732 366 670 b 229 455 366 517 305 455 b 103 538 173 455 124 489 z m 310 369 b 466 594 401 403 466 491 b 229 832 466 725 360 832 b 101 794 182 832 138 818 b 88 817 99 803 94 811 b 51 832 79 826 66 832 b 0 780 23 832 0 809 l 0 54 b 51 2 0 26 23 2 b 103 54 80 2 103 26 l 103 392 b 200 357 132 373 164 361 b 204 346 201 353 202 350 l 389 24 b 458 6 402 0 433 -8 l 459 7 b 478 76 483 21 492 52 l 310 369 z "},"S":{"ha":581,"x_min":0,"x_max":0,"o":"m 386 416 b 238 468 345 448 294 468 b 102 604 163 468 102 529 b 238 741 102 680 163 741 b 357 671 289 741 334 713 b 358 668 358 670 358 669 b 359 668 358 668 359 668 b 403 643 368 653 384 643 b 454 695 431 643 454 666 b 449 716 454 702 452 709 b 445 723 448 718 447 721 b 238 844 404 795 327 844 b 0 604 107 844 0 736 b 91 416 0 528 36 460 b 238 365 132 384 183 365 b 374 228 313 365 374 303 b 238 91 374 153 313 91 b 121 159 188 91 145 119 b 121 159 121 159 121 159 b 118 165 120 161 119 163 b 118 165 118 165 118 165 b 75 189 108 179 92 189 b 23 137 46 189 23 166 b 28 116 23 130 25 123 b 28 116 28 116 28 116 b 32 108 29 113 30 111 b 32 108 32 108 32 108 b 238 -12 73 37 150 -12 b 477 228 370 -12 477 96 b 386 416 477 304 441 372 z "},"T":{"ha":693,"x_min":0,"x_max":0,"o":"m 537 831 l 51 831 b 0 779 23 831 0 808 l 0 779 b 51 728 0 751 23 728 l 243 728 l 243 53 b 294 1 243 24 266 1 b 346 53 323 1 346 24 l 346 728 l 537 728 b 589 779 566 728 589 751 l 589 779 b 537 831 589 808 566 831 z "},"U":{"ha":626,"x_min":0,"x_max":0,"o":"m 453 831 b 404 781 426 831 404 809 l 404 254 b 251 101 404 170 335 101 b 99 254 167 101 99 170 l 99 781 b 84 816 99 795 93 807 b 49 831 75 825 63 831 b 0 781 22 831 0 809 l 0 238 b 99 53 5 163 42 96 b 251 1 141 20 194 1 b 404 53 309 1 361 20 b 503 244 461 97 500 166 l 503 781 b 488 817 503 795 497 808 b 453 831 479 826 467 831 z "},"V":{"ha":751,"x_min":0,"x_max":0,"o":"m 607 826 b 541 795 580 836 551 822 l 324 202 l 106 795 b 40 826 97 822 67 836 l 40 826 b 10 760 14 816 0 786 l 275 37 b 283 21 277 31 279 26 b 283 21 283 21 283 21 b 286 17 284 20 285 19 b 286 17 286 17 286 17 b 290 14 287 16 289 15 b 290 14 290 14 290 14 b 294 11 291 13 292 12 b 294 11 294 11 294 11 b 298 8 295 10 296 9 b 298 8 298 8 298 8 b 302 6 299 7 301 7 b 303 6 302 6 303 6 b 306 4 304 5 305 5 b 307 4 306 4 306 4 b 307 4 307 4 307 4 b 311 3 309 3 310 3 b 312 3 312 3 312 3 b 321 1 315 2 318 1 b 322 1 321 1 322 1 b 326 1 323 1 325 1 b 329 1 327 1 328 1 b 331 2 329 1 330 2 b 334 2 332 2 333 2 b 336 3 335 2 335 2 b 339 4 337 3 338 3 b 341 4 340 4 340 4 b 342 4 341 4 341 4 l 342 4 b 344 5 342 5 343 5 b 346 6 345 6 345 6 b 349 8 347 7 348 7 b 350 8 349 8 350 8 b 354 11 351 9 352 10 b 354 11 354 11 354 11 b 357 14 355 12 356 13 b 358 14 358 14 358 14 b 361 17 359 15 360 16 b 361 18 361 17 361 17 b 364 21 362 19 363 20 b 365 21 364 21 365 21 b 367 26 366 23 367 24 b 367 26 367 26 367 26 b 373 37 370 29 371 33 l 638 760 b 607 826 647 786 634 816 z "},"W":{"ha":1149,"x_min":0,"x_max":0,"o":"m 1003 829 l 1003 829 b 938 795 976 837 947 822 l 755 222 l 571 795 b 571 797 571 796 571 797 b 570 799 570 798 570 798 b 568 802 569 800 569 801 b 568 804 568 803 568 803 b 566 807 567 805 567 806 b 565 808 566 807 566 807 b 563 811 565 809 564 810 b 562 812 563 811 563 812 b 560 814 562 813 561 814 b 559 816 560 815 559 815 b 557 818 558 816 557 817 b 555 819 556 818 556 819 b 553 821 554 820 554 820 b 551 822 552 821 552 822 b 549 824 550 823 550 823 b 547 825 548 824 547 824 b 545 826 546 825 545 826 b 542 827 544 826 543 827 b 540 828 541 827 541 828 b 538 829 539 828 539 828 l 538 829 b 537 829 538 829 538 829 b 535 829 537 829 536 829 b 532 830 534 830 533 830 b 530 830 532 830 531 830 b 527 831 529 831 528 831 b 526 831 527 831 526 831 b 522 831 525 831 523 831 b 521 831 522 831 521 831 b 517 831 520 831 518 831 b 516 831 517 831 517 831 b 512 830 515 831 513 830 b 511 830 512 830 511 830 b 507 829 510 830 508 829 b 507 829 507 829 507 829 b 506 828 506 829 506 828 b 502 827 505 828 503 827 b 501 826 502 827 501 827 b 498 825 500 826 499 825 b 496 824 497 824 497 824 b 493 822 495 823 494 823 b 492 821 493 822 493 821 b 489 819 491 820 490 820 b 488 818 489 819 489 818 b 485 815 487 817 486 816 b 485 815 485 815 485 815 b 482 812 484 814 483 813 b 482 811 482 811 482 811 b 479 807 481 810 480 809 b 479 807 479 807 479 807 b 477 803 478 806 477 805 b 476 803 477 803 477 803 b 475 799 476 801 475 800 b 474 798 475 798 474 798 b 473 795 474 797 474 796 l 290 222 l 107 795 b 42 829 98 822 69 837 l 42 829 b 9 764 15 820 0 791 l 241 37 b 242 35 241 36 241 36 b 243 33 242 35 242 34 b 244 30 243 32 243 31 b 245 29 244 30 244 29 b 246 26 245 28 246 27 b 247 24 246 25 247 25 b 249 22 248 23 248 23 b 250 20 249 21 250 21 b 252 18 251 19 251 19 b 254 16 253 17 253 17 b 255 15 254 16 255 15 b 257 13 256 14 257 13 b 259 11 258 12 259 12 b 261 10 260 11 261 10 b 263 9 262 9 263 9 b 266 7 264 8 265 8 b 268 6 266 7 267 7 b 270 5 269 6 269 6 b 273 4 271 5 272 4 b 274 4 273 4 274 4 l 274 4 b 275 3 274 4 275 4 b 278 3 276 3 277 3 b 280 2 279 2 279 2 b 283 2 281 2 282 2 b 285 1 283 2 284 1 b 288 1 286 1 287 1 b 290 1 288 1 289 1 b 292 1 291 1 292 1 b 295 1 293 1 294 1 b 297 2 296 1 296 2 b 300 2 298 2 299 2 b 302 3 301 2 301 2 b 305 3 303 3 304 3 b 306 4 305 4 306 4 l 306 4 b 307 4 306 4 307 4 b 310 5 308 4 309 5 b 312 6 311 6 311 6 b 314 7 313 7 314 7 b 317 9 315 8 316 8 b 319 10 317 9 318 9 b 321 11 319 10 320 11 b 323 13 321 12 322 12 b 324 15 323 13 324 14 b 326 16 325 15 326 16 b 328 18 327 17 327 17 b 330 20 329 19 329 19 b 331 22 330 21 331 21 b 333 24 332 23 332 23 b 334 26 333 25 333 25 b 335 29 334 27 335 28 b 336 30 336 29 336 30 b 337 33 337 31 337 32 b 338 35 338 34 338 35 b 339 37 339 36 339 36 l 522 610 l 706 37 b 706 35 706 36 706 36 b 707 33 707 35 707 34 b 708 30 708 32 708 31 b 709 29 709 30 709 29 b 711 26 710 28 710 27 b 712 24 711 25 711 25 b 714 22 712 23 713 23 b 715 20 714 21 714 21 b 717 18 715 19 716 19 b 718 16 717 17 718 17 b 720 15 719 16 719 15 b 722 13 721 14 721 13 b 724 11 723 12 723 12 b 726 10 725 11 725 10 b 728 9 727 9 727 9 b 730 7 729 8 730 8 b 733 6 731 7 732 7 b 735 5 733 6 734 5 b 738 4 736 5 737 4 b 739 4 738 4 738 4 l 739 4 b 740 3 739 4 739 4 b 743 3 741 3 742 3 b 745 2 743 2 744 2 b 747 2 745 2 746 2 b 750 1 748 2 749 1 b 752 1 750 1 751 1 b 755 1 753 1 754 1 b 757 1 755 1 756 1 b 760 1 758 1 759 1 b 762 2 760 1 761 2 b 765 2 763 2 764 2 b 767 3 765 2 766 2 b 770 3 768 3 769 3 b 770 4 770 4 770 4 b 772 4 771 4 771 4 b 775 5 773 4 774 5 b 777 6 775 5 776 6 b 779 7 777 7 778 7 b 781 9 780 8 781 8 b 783 10 782 9 783 9 b 785 11 784 10 785 11 b 787 13 786 12 787 12 b 789 15 788 13 789 14 b 791 16 790 15 790 16 b 793 18 792 17 792 17 b 795 20 793 19 794 19 b 796 22 795 21 795 21 b 797 24 796 23 797 23 b 798 26 798 25 798 25 b 800 29 799 27 800 28 b 801 30 800 29 801 30 b 802 33 801 31 802 32 b 803 35 802 34 803 35 b 804 37 803 36 803 36 l 1036 764 b 1003 829 1045 791 1030 820 z "},"X":{"ha":696,"x_min":0,"x_max":0,"o":"m 562 823 l 562 823 b 490 808 538 838 506 832 l 296 510 l 102 808 b 30 823 86 832 54 838 b 16 751 7 807 0 775 l 234 416 l 16 81 b 30 10 0 57 7 25 b 102 24 54 -6 86 1 l 296 322 l 490 24 b 562 10 506 1 538 -6 l 562 10 b 576 81 585 25 592 57 l 358 416 l 576 751 b 562 823 592 775 585 807 z "},"Y":{"ha":697,"x_min":0,"x_max":0,"o":"m 563 823 b 534 831 554 828 544 831 b 491 808 518 831 501 823 l 296 510 l 102 807 b 59 830 92 822 75 830 b 30 822 49 830 39 828 b 16 751 7 806 0 774 l 245 399 l 245 53 b 297 2 245 25 269 2 b 348 53 325 2 348 25 l 348 401 l 577 751 b 563 823 593 775 586 807 z "},"Z":{"ha":683,"x_min":0,"x_max":0,"o":"m 527 106 l 146 106 l 566 746 b 578 775 573 754 577 764 b 578 776 578 775 578 776 b 578 779 578 777 578 778 l 578 779 b 578 780 578 779 578 779 b 555 823 578 796 570 813 b 519 831 544 830 531 832 l 51 831 b 0 779 23 831 0 808 l 0 779 b 51 728 0 751 23 728 l 431 728 l 9 83 b 2 67 5 78 3 73 b 0 54 1 63 0 59 l 0 54 b 51 3 0 26 23 3 l 527 3 b 578 54 555 3 578 26 l 578 54 b 527 106 578 83 555 106 z "},"\\":{"ha":567,"x_min":0,"x_max":0,"o":"m 37 790 b 11 725 12 779 0 750 l 367 -113 b 432 -139 378 -138 407 -150 l 432 -139 b 459 -74 458 -128 469 -99 l 102 764 b 37 790 91 789 62 801 l 37 790 z "},"_":{"ha":561,"x_min":0,"x_max":0,"o":"m -20 50 l -20 50 b 30 0 -20 22 2 0 l 415 0 b 465 50 443 0 465 22 l 465 50 b 415 99 465 77 443 99 l 30 99 b -20 50 2 99 -20 77 z "},"a":{"ha":607,"x_min":0,"x_max":0,"o":"m 207 102 b 60 250 126 102 60 169 b 207 398 60 332 126 398 b 355 250 289 398 355 332 b 207 102 355 169 289 102 z m 405 500 b 355 450 377 500 355 477 l 355 448 b 207 497 314 479 263 497 b -40 250 71 497 -40 386 b 207 3 -40 114 71 3 b 355 52 263 3 314 21 l 355 52 b 405 2 355 24 377 2 b 454 52 432 2 454 24 l 454 450 b 405 500 454 477 432 500 z "},"b":{"ha":647,"x_min":0,"x_max":0,"o":"m 247 102 b 99 250 166 102 99 169 b 247 398 99 332 166 398 b 395 250 329 398 395 332 b 247 102 395 169 329 102 z m 247 497 b 99 448 192 497 141 479 l 99 794 b 50 844 99 822 77 844 b 0 794 22 844 0 822 l 0 52 b 50 2 0 24 22 2 b 99 52 77 2 99 24 l 99 52 b 247 3 141 21 192 3 b 494 250 383 3 494 114 b 247 497 494 386 383 497 z "},"c":{"ha":547,"x_min":0,"x_max":0,"o":"m 395 109 b 345 159 395 137 373 159 b 312 146 332 159 321 154 b 309 144 311 145 310 144 b 207 103 283 118 247 103 b 60 250 126 103 60 169 b 207 398 60 332 126 398 b 310 357 247 398 283 382 b 345 342 319 348 331 342 b 395 392 373 342 395 364 b 383 424 395 404 390 415 b 377 430 381 426 379 428 b 377 430 377 430 377 430 b 207 498 332 472 273 498 b -40 250 71 498 -40 387 b 207 3 -40 114 71 3 b 377 71 273 3 333 29 b 377 71 377 71 377 71 b 383 76 379 73 381 75 b 395 109 390 85 395 97 z "},"d":{"ha":607,"x_min":0,"x_max":0,"o":"m 207 101 b 60 248 126 101 60 167 b 207 396 60 330 126 396 b 355 248 289 396 355 330 b 207 101 355 167 289 101 z m 405 831 l 405 831 b 355 782 377 831 355 809 l 355 446 b 207 495 314 477 263 495 b -40 248 71 495 -40 385 b 207 1 -40 112 71 1 b 355 50 263 1 314 20 l 355 50 b 405 1 355 23 377 1 l 405 1 b 454 50 432 1 454 23 l 454 782 b 405 831 454 809 432 831 z "},"e":{"ha":567,"x_min":0,"x_max":0,"o":"m 73 312 b 207 398 97 363 148 398 b 341 312 267 398 318 363 l 73 312 z m 454 269 b 454 269 454 269 454 269 b 207 497 444 396 337 497 b -40 250 71 497 -40 386 b 207 3 -40 114 71 3 b 381 74 275 3 336 30 b 386 80 383 76 384 78 b 386 80 386 80 386 80 b 398 112 393 88 398 100 b 348 162 398 139 376 162 b 313 147 335 162 322 156 b 311 145 313 147 312 146 b 207 102 285 119 248 102 b 64 213 139 102 81 149 l 404 213 b 454 263 432 213 454 235 l 454 263 b 454 269 454 265 454 267 z "},"f":{"ha":447,"x_min":0,"x_max":0,"o":"m 340 797 b 335 801 338 798 337 799 b 335 801 335 801 335 801 b 219 844 304 828 263 844 b 133 822 188 844 159 836 b 42 667 79 792 42 733 l 42 539 l -10 539 b -60 489 -37 539 -60 517 b -10 439 -60 462 -37 439 l 42 439 l 42 51 b 92 1 42 24 64 1 b 141 51 119 1 141 24 l 141 439 l 237 439 b 287 489 264 439 287 462 b 237 539 287 517 264 539 l 141 539 l 141 667 b 219 745 141 710 176 745 b 270 726 239 745 256 738 b 272 725 271 725 271 725 b 272 724 272 724 272 724 b 304 712 281 717 292 712 b 354 762 332 712 354 734 b 340 797 354 775 349 788 z "},"g":{"ha":607,"x_min":0,"x_max":0,"o":"m 343 192 b 273 118 329 160 304 133 b 207 102 253 108 231 102 b 142 118 184 102 162 108 b 72 192 111 133 86 160 b 60 250 64 210 60 229 b 207 398 60 332 126 398 b 355 250 289 398 355 332 b 343 192 355 229 351 210 z m 406 499 l 403 499 b 355 451 377 499 355 477 l 355 448 b 207 497 314 479 263 497 b -40 250 71 497 -40 386 b -1 118 -40 202 -26 156 b 72 44 18 88 42 63 b 207 3 111 18 157 3 b 343 44 257 3 304 18 b 355 52 347 47 351 49 l 355 -15 b 207 -162 355 -96 289 -162 b 85 -96 156 -162 111 -136 b 82 -92 84 -95 83 -94 b 41 -71 73 -80 58 -71 b -8 -121 14 -71 -8 -94 b -2 -145 -8 -130 -6 -138 b -2 -145 -2 -145 -2 -145 b 1 -151 -1 -147 0 -149 b 2 -151 1 -151 1 -151 b 207 -262 46 -218 122 -262 b 395 -175 282 -262 349 -228 b 454 -15 432 -132 454 -76 l 454 451 b 406 499 454 477 433 499 z "},"h":{"ha":528,"x_min":0,"x_max":0,"o":"m 282 461 b 187 486 254 477 222 486 b 99 464 156 486 126 478 l 99 769 b 50 819 99 797 77 819 b 0 769 22 819 0 797 l 0 314 l 0 38 l 0 37 b 50 -13 0 9 22 -13 b 99 37 77 -13 99 9 l 99 308 b 187 387 104 353 142 387 b 276 298 236 387 276 347 l 276 38 b 325 -11 276 11 298 -11 b 375 38 353 -11 375 11 l 375 313 b 282 461 370 376 334 430 z "},"i":{"ha":292,"x_min":0,"x_max":0,"o":"m 70 659 b 119 609 97 659 119 637 b 70 559 119 582 97 559 b 20 609 42 559 20 582 b 70 659 20 637 42 659 z m 20 49 b 70 0 20 22 42 0 l 70 0 b 119 49 97 0 119 22 l 119 447 b 70 497 119 475 97 497 l 70 497 b 20 447 42 497 20 475 l 20 49 z "},"j":{"ha":253,"x_min":0,"x_max":0,"o":"m 50 659 b 99 609 77 659 99 637 b 50 559 99 582 77 559 b 0 609 22 559 0 582 b 50 659 0 637 22 659 z m 0 -212 b 50 -262 0 -239 22 -262 l 50 -262 b 99 -212 77 -262 99 -239 l 99 449 b 50 499 99 476 77 499 l 50 499 b 0 449 22 499 0 476 l 0 -212 z "},"k":{"ha":469,"x_min":0,"x_max":0,"o":"m 299 87 l 132 254 l 292 414 b 292 484 311 433 311 465 b 222 484 273 503 241 503 l 60 322 l 60 782 b 10 831 60 809 37 831 l 10 831 b -40 782 -17 831 -40 809 l -40 49 b 10 0 -40 22 -17 0 l 10 0 b 60 49 37 0 60 22 l 60 181 l 62 183 l 228 17 b 299 17 248 -3 279 -3 l 299 17 b 299 87 318 36 318 67 z "},"l":{"ha":272,"x_min":0,"x_max":0,"o":"m 50 0 l 50 0 b 99 49 77 0 99 22 l 99 782 b 50 831 99 809 77 831 l 50 831 b 0 782 22 831 0 809 l 0 49 b 50 0 0 22 22 0 z "},"m":{"ha":860,"x_min":0,"x_max":0,"o":"m 707 297 b 608 471 707 371 667 436 b 506 499 578 488 543 499 b 403 471 468 499 433 488 b 354 429 385 460 368 446 b 304 471 339 446 323 460 b 202 499 274 488 239 499 b 95 468 163 499 126 488 b 50 499 88 486 70 499 b 15 484 36 499 24 493 b 0 449 6 475 0 463 l 0 51 b 50 1 0 23 22 1 b 99 51 77 1 99 23 l 99 297 b 202 399 99 353 145 399 b 304 297 258 399 304 353 l 304 51 b 354 1 304 23 326 1 b 403 51 381 1 403 23 l 403 297 b 506 399 403 353 449 399 b 608 297 562 399 608 353 l 608 44 b 658 -6 608 16 630 -6 b 707 44 685 -6 707 16 l 707 297 z "},"n":{"ha":551,"x_min":0,"x_max":0,"o":"m 398 299 b 303 469 398 371 360 434 b 199 498 273 488 237 498 b 95 469 161 498 125 488 b 50 499 87 486 70 499 b 15 484 36 499 24 493 b 0 449 6 475 0 463 l 0 51 b 50 1 0 23 22 1 b 99 51 77 1 99 23 l 99 299 b 199 399 99 354 144 399 b 299 299 254 399 299 354 l 299 51 b 349 1 299 23 321 1 b 398 51 376 1 398 23 l 398 299 z "},"o":{"ha":547,"x_min":0,"x_max":0,"o":"m 188 399 b 335 251 269 399 335 332 b 188 103 335 169 269 103 b 40 251 106 103 40 169 b 188 399 40 332 106 399 z m 188 4 b 435 251 324 4 435 115 b 188 498 435 387 324 498 b -60 251 51 498 -60 387 b 188 4 -60 115 51 4 z "},"p":{"ha":647,"x_min":0,"x_max":0,"o":"m 247 103 b 99 251 166 103 99 169 b 247 399 99 332 166 399 b 395 251 329 399 395 332 b 247 103 395 169 329 103 z m 247 498 b 99 449 192 498 141 480 l 99 449 b 50 499 99 476 77 499 b 0 449 22 499 0 476 l 0 -212 b 50 -262 0 -239 22 -262 b 99 -212 77 -262 99 -239 l 99 53 b 247 4 141 22 192 4 b 494 251 383 4 494 115 b 247 498 494 387 383 498 z "},"q":{"ha":607,"x_min":0,"x_max":0,"o":"m 207 103 b 60 251 126 103 60 169 b 207 399 60 332 126 399 b 355 251 289 399 355 332 b 207 103 355 169 289 103 z m 405 499 b 355 449 377 499 355 476 l 355 449 b 207 498 314 480 263 498 b -40 251 71 498 -40 387 b 207 4 -40 115 71 4 b 355 53 263 4 314 22 l 355 -212 b 405 -262 355 -239 377 -262 b 454 -212 432 -262 454 -239 l 454 449 b 405 499 454 476 432 499 z "},"r":{"ha":396,"x_min":0,"x_max":0,"o":"m 284 438 b 258 481 284 456 273 473 b 248 485 255 483 252 484 b 182 498 228 493 206 498 b 93 474 150 498 119 489 b 50 500 84 489 68 500 b 15 485 36 500 24 494 b 0 450 6 476 0 464 l 0 52 b 50 2 0 24 22 2 b 99 52 77 2 99 24 l 99 315 b 182 398 99 361 137 398 b 213 392 193 398 204 396 b 216 391 214 392 215 392 b 234 388 222 389 228 388 b 284 438 261 388 284 410 z "},"s":{"ha":399,"x_min":0,"x_max":0,"o":"m 268 137 b 227 241 268 177 252 214 b 114 291 199 272 159 291 b 60 345 84 291 60 315 b 114 400 60 375 84 400 b 150 386 128 400 140 395 l 150 386 b 152 384 151 385 152 384 b 185 372 161 376 172 372 b 235 421 212 372 235 394 b 223 454 235 434 230 445 b 214 462 220 457 217 459 b 114 499 187 485 152 499 b -40 345 29 499 -40 430 b 1 241 -40 305 -24 269 b 114 192 29 211 69 192 b 168 137 144 192 168 167 b 114 83 168 107 144 83 b 69 106 95 83 79 92 b 69 107 69 107 69 107 b 28 128 60 120 45 128 b -22 79 1 128 -22 106 b -16 55 -22 70 -20 62 b -15 54 -16 55 -16 55 b -10 47 -14 52 -12 49 b -10 47 -10 47 -10 47 b 114 -17 18 8 63 -17 b 268 137 199 -17 268 52 z "},"t":{"ha":357,"x_min":0,"x_max":0,"o":"m 197 597 l 143 597 l 143 782 b 93 831 143 809 120 831 b 44 782 66 831 44 809 l 44 597 l -10 597 b -60 548 -37 597 -60 575 b -10 498 -60 520 -37 498 l 44 498 l 44 51 b 93 1 44 24 66 1 b 143 51 120 1 143 24 l 143 498 l 197 498 b 246 548 224 498 246 520 b 197 597 246 575 224 597 z "},"u":{"ha":528,"x_min":0,"x_max":0,"o":"m 276 192 b 276 189 276 191 276 190 z m 375 450 b 325 499 375 477 353 499 b 276 450 298 499 276 477 l 276 186 b 187 101 274 139 235 101 b 99 189 139 101 99 141 l 99 450 b 49 499 99 477 77 499 b 0 450 22 499 0 477 l 0 175 b 93 27 5 112 41 57 b 187 1 121 11 153 1 b 282 27 222 1 254 11 b 375 174 334 57 370 111 l 375 450 z m 276 186 b 276 189 276 187 276 188 b 276 186 276 188 276 187 z "},"v":{"ha":563,"x_min":0,"x_max":0,"o":"m 246 23 b 246 23 246 23 246 23 b 251 33 248 26 250 29 l 420 430 b 393 495 430 455 419 484 b 329 468 368 505 339 494 l 205 177 l 82 468 b 17 495 71 494 42 505 b -9 430 -8 484 -20 455 l 159 33 b 165 23 161 29 162 26 b 165 23 165 23 165 23 b 167 19 166 21 166 20 b 168 19 168 19 168 19 b 171 16 169 18 170 17 b 171 15 171 15 171 15 b 174 12 172 14 173 13 b 175 12 174 12 175 12 b 178 10 176 11 177 10 b 179 9 178 9 179 9 b 182 7 180 8 181 8 b 183 7 183 7 183 7 b 186 5 184 6 185 6 b 187 5 186 5 186 5 b 188 5 187 5 187 5 b 191 4 189 4 190 4 b 192 3 191 3 192 3 b 196 2 193 3 195 3 b 196 2 196 2 196 2 b 201 2 198 2 199 2 b 201 2 201 2 201 2 b 205 1 203 2 204 1 b 209 2 206 1 208 2 b 210 2 209 2 210 2 b 214 2 211 2 213 2 b 215 2 214 2 215 2 b 218 3 216 3 217 3 b 219 4 219 3 219 3 b 223 5 220 4 221 4 b 224 5 223 5 223 5 b 225 5 224 5 224 5 l 225 5 b 227 7 225 6 226 6 b 228 7 227 7 228 7 b 231 9 229 8 230 8 b 232 10 232 9 232 9 b 236 12 233 10 234 11 b 236 12 236 12 236 12 b 239 15 237 13 238 14 b 240 16 239 15 240 15 b 243 19 241 17 242 18 b 243 19 243 19 243 19 b 246 23 244 20 245 21 z "},"w":{"ha":900,"x_min":0,"x_max":0,"o":"m 584 23 b 584 23 584 23 584 23 b 589 33 586 26 588 29 l 758 430 b 731 495 768 455 756 484 b 667 469 706 505 677 494 l 543 177 l 420 469 b 355 495 409 494 380 505 b 352 493 354 494 353 494 b 351 493 351 493 351 493 b 348 491 350 492 349 492 b 347 490 348 491 347 491 b 344 488 346 490 345 489 b 343 488 344 488 343 488 b 341 486 342 487 342 486 b 339 484 340 485 340 485 b 338 482 339 484 338 483 b 336 480 337 482 337 481 b 335 479 336 480 335 479 b 333 476 334 478 334 477 b 332 475 333 476 333 476 b 331 472 332 474 331 473 b 330 471 330 472 330 472 b 329 468 330 470 329 469 l 205 177 l 82 468 b 17 495 71 494 42 505 l 17 495 b -9 430 -8 484 -20 455 l 159 33 b 165 23 161 29 162 26 b 165 23 165 23 165 23 b 167 19 166 21 166 20 b 168 19 168 19 168 19 b 171 16 169 18 170 17 b 171 15 171 15 171 15 b 174 12 172 14 173 13 b 175 12 174 12 175 12 b 178 10 176 11 177 10 b 179 9 178 9 179 9 b 182 7 180 8 181 8 b 183 7 183 7 183 7 b 186 5 184 6 185 6 l 186 5 b 187 5 186 5 186 5 b 188 5 187 5 187 5 b 191 4 189 4 190 4 b 192 3 191 3 192 3 b 196 2 193 3 195 3 b 196 2 196 2 196 2 b 201 2 198 2 199 2 b 201 2 201 2 201 2 b 205 1 203 2 204 1 b 209 2 206 1 208 2 b 210 2 209 2 210 2 b 214 2 211 2 213 2 b 215 2 214 2 215 2 b 218 3 216 3 217 3 b 219 4 219 3 219 3 b 223 5 220 4 222 4 b 224 5 223 5 223 5 b 225 5 224 5 224 5 b 227 7 225 6 226 6 b 228 7 227 7 228 7 b 231 9 229 8 230 8 b 232 10 232 9 232 9 b 236 12 233 10 234 11 b 236 12 236 12 236 12 b 239 15 237 13 238 14 b 240 16 239 15 240 15 b 243 19 241 17 242 18 b 243 19 243 19 243 19 b 246 23 244 20 245 21 b 246 23 246 23 246 23 b 251 33 248 26 250 29 l 374 323 l 497 33 b 502 23 499 29 500 26 b 503 23 503 23 503 23 b 505 19 504 21 504 20 b 506 19 506 19 506 19 b 509 16 507 18 508 17 b 509 15 509 15 509 15 b 512 12 510 14 511 13 b 513 12 512 12 513 12 b 516 10 514 11 515 10 b 517 9 516 9 517 9 b 520 7 518 8 519 8 b 521 7 521 7 521 7 b 524 5 522 6 523 6 b 524 5 524 5 524 5 b 526 5 525 5 525 5 b 529 4 527 4 528 4 b 530 3 529 4 530 3 b 534 2 531 3 532 3 b 534 2 534 2 534 2 b 538 2 536 2 537 2 b 539 2 539 2 539 2 b 543 2 541 2 542 2 b 547 2 544 2 546 2 b 548 2 547 2 548 2 b 552 2 549 2 551 2 b 553 2 552 2 552 2 b 556 3 554 3 555 3 b 557 4 557 3 557 4 b 561 5 558 4 559 4 b 562 5 561 5 561 5 b 562 5 562 5 562 5 b 565 7 563 6 564 6 b 566 7 565 7 566 7 b 569 9 567 8 568 8 b 570 10 570 9 570 9 b 573 12 571 10 572 11 b 574 12 574 12 574 12 b 577 15 575 13 576 14 b 578 16 577 15 578 15 b 581 19 579 17 580 18 b 581 19 581 19 581 19 b 584 23 582 20 583 21 z "},"x":{"ha":549,"x_min":0,"x_max":0,"o":"m 381 79 l 259 251 l 378 420 b 367 489 394 442 389 473 b 298 477 344 504 314 499 l 198 337 l 99 477 b 30 489 83 499 52 504 b 18 420 8 473 2 442 l 138 251 l 16 79 b 27 10 0 57 5 26 l 27 10 b 96 22 50 -5 81 0 l 198 166 l 300 22 b 369 10 316 0 347 -5 b 381 79 391 26 396 57 z "},"y":{"ha":561,"x_min":0,"x_max":0,"o":"m 420 430 b 393 495 430 455 419 484 b 329 469 368 505 339 494 l 205 178 l 82 469 b 17 495 71 494 42 505 l 17 495 b -9 430 -8 484 -20 455 l 152 51 l 48 -193 b 74 -257 38 -218 49 -247 l 74 -257 b 139 -231 100 -268 129 -256 l 250 31 b 251 33 251 32 251 33 l 420 430 z "},"z":{"ha":600,"x_min":0,"x_max":0,"o":"m 398 100 l 159 100 l 435 417 b 435 417 435 417 435 417 b 437 420 436 418 437 419 b 438 421 438 420 438 421 b 440 423 439 422 439 423 b 441 425 440 424 441 425 b 442 428 441 426 442 427 b 443 430 442 428 443 429 b 444 432 443 430 444 431 b 445 434 444 433 445 433 b 445 437 445 435 445 436 b 446 439 446 437 446 438 b 446 441 446 440 446 440 b 447 444 447 442 447 443 b 447 446 447 444 447 445 b 447 449 447 447 447 448 b 447 449 447 449 447 449 b 447 451 447 450 447 450 b 447 453 447 452 447 453 b 447 456 447 454 447 455 b 446 458 447 457 446 457 b 446 461 446 459 446 460 b 445 463 446 461 445 462 b 444 465 445 464 445 465 b 444 467 444 466 444 467 b 443 470 443 468 443 469 b 442 472 442 470 442 471 b 440 474 441 473 441 473 b 439 476 440 475 440 475 b 438 478 439 477 438 477 b 436 480 437 479 437 479 b 435 482 436 481 435 481 b 433 484 434 482 434 483 b 431 485 433 484 432 485 b 430 487 431 486 431 486 b 430 487 430 487 430 487 b 427 489 429 488 428 488 b 426 490 427 489 426 490 b 423 491 425 490 424 491 b 422 492 423 492 422 492 b 419 494 421 493 420 493 b 417 495 419 494 418 494 b 415 495 417 495 416 495 b 413 496 414 496 414 496 b 410 497 412 497 411 497 b 408 498 410 497 409 497 b 406 498 407 498 407 498 b 403 498 405 498 404 498 b 401 498 403 498 402 498 b 398 499 400 499 399 499 b 398 499 398 499 398 499 l 51 499 b 2 449 24 499 2 477 b 51 400 2 422 24 400 l 289 400 l 14 84 b 3 41 4 72 0 56 b 3 40 3 41 3 40 b 4 37 3 39 4 38 b 5 35 4 36 4 35 b 5 33 5 34 5 34 b 51 1 12 15 30 1 l 398 1 b 447 51 425 1 447 24 b 398 100 447 78 425 100 z "}," ":{"ha":365,"x_min":0,"x_max":0,"o":""},"":{"ha":476,"x_min":0,"x_max":0,"o":"m 343 894 b 325 897 337 896 331 897 b 279 865 305 897 287 885 l 208 603 b 206 598 207 601 207 600 b 227 571 205 585 214 573 b 249 581 236 570 244 574 l 249 581 l 253 589 l 374 837 b 343 894 379 861 366 885 z m 169 837 l 48 589 l 45 581 l 45 581 b 22 571 40 574 31 570 b 2 598 9 573 0 585 b 3 603 2 600 2 601 l 74 865 b 121 897 82 885 101 897 b 138 894 127 897 133 896 b 169 837 162 885 175 861 z "}}}
